<svg width="585" height="197" viewBox="0 0 585 197" fill="none" xmlns="http://www.w3.org/2000/svg">
<path d="M1.92759 195.382L107.196 115.829C107.99 115.229 109.098 115.274 109.841 115.936L160.375 161.014C160.863 161.449 161.526 161.63 162.168 161.503L269.884 140.217C270.412 140.113 270.878 139.809 271.187 139.369L328.93 57.0336C329.749 55.866 331.472 55.8466 332.317 56.9954L392.784 139.205C393.177 139.739 393.801 140.054 394.464 140.054H498.899C499.612 140.054 500.276 139.69 500.659 139.087L583.307 8.95126" stroke="url(#paint0_linear_1732_1097)" stroke-width="3.12757" stroke-linecap="round" stroke-linejoin="round"/>
<path d="M1.92759 195.382L57.1074 103.089C57.9166 101.735 59.8773 101.735 60.6865 103.089L114.323 192.802C115.07 194.051 116.834 194.17 117.742 193.032L174.067 122.479C174.219 122.288 174.403 122.126 174.611 121.999L263.012 68.0812C264.022 67.4649 265.343 67.8124 265.919 68.8463L334.796 192.433C335.551 193.787 337.468 193.873 338.341 192.591L404.78 95.0346C404.987 94.7312 405.27 94.4878 405.6 94.3289L583.307 8.95126" stroke="url(#paint1_linear_1732_1097)" stroke-width="3.12757" stroke-linecap="round" stroke-linejoin="round"/>
<path d="M2.63558 2.51581H109.595C110.407 2.51581 111.145 2.98752 111.486 3.72458L191.535 176.558C192.384 178.39 195.08 178.067 195.472 176.087L220.437 50.0866C220.545 49.5395 220.868 49.0586 221.334 48.7514L289.844 3.55193C290.736 2.96329 291.929 3.1447 292.606 3.97195L436.182 179.445C437.222 180.715 439.254 180.341 439.773 178.784L482.731 50.0483C482.906 49.5252 483.28 49.0925 483.773 48.845L576.023 2.51581" stroke="url(#paint2_linear_1732_1097)" stroke-width="3.12757" stroke-linecap="round" stroke-linejoin="round"/>
<defs>
<linearGradient id="paint0_linear_1732_1097" x1="583.307" y1="55.5582" x2="115.687" y2="45.4924" gradientUnits="userSpaceOnUse">
<stop stop-color="#E323FF"/>
<stop offset="1" stop-color="#7517F8"/>
</linearGradient>
<linearGradient id="paint1_linear_1732_1097" x1="583.307" y1="-18.6675" x2="23.1237" y2="-18.6675" gradientUnits="userSpaceOnUse">
<stop stop-color="#4DFFDF"/>
<stop offset="1" stop-color="#4DA1FF"/>
</linearGradient>
<linearGradient id="paint2_linear_1732_1097" x1="576.023" y1="47.4792" x2="16.9336" y2="49.0026" gradientUnits="userSpaceOnUse">
<stop stop-color="#7517F8"/>
<stop offset="0.927083" stop-color="#E323FF"/>
</linearGradient>
</defs>
</svg>
