<svg width="20" height="20" viewBox="0 0 20 20" fill="none" xmlns="http://www.w3.org/2000/svg">
<path d="M3.39736 15.2886C2.08738 15.1655 0.986945 14.2072 0.805248 12.906C0.367761 9.79496 0.372695 6.63769 0.819901 3.52806C0.995736 2.31186 1.98921 1.39312 3.21127 1.26564C5.34724 1.04249 7.49341 0.930977 9.641 0.931551C11.8404 0.931551 13.9607 1.0561 16.0268 1.26857C16.6311 1.32576 17.1988 1.58367 17.6394 2.00117C18.08 2.41866 18.3681 2.97169 18.4577 3.57202C18.683 5.14012 18.7971 6.7222 18.7991 8.3064C18.7991 9.91237 18.6628 11.4729 18.4489 12.9895C18.3596 13.6014 18.0677 14.1657 17.6198 14.592C17.1719 15.0184 16.594 15.2822 15.9784 15.3413C13.821 15.5672 11.6534 15.6806 9.48422 15.6813C7.94712 17.4484 6.76902 18.3232 4.71027 19.2478V15.4087L3.71387 15.3179L3.39736 15.2886Z" fill="#0E0C38"/>
<path d="M3.39736 15.2886C2.08738 15.1655 0.986945 14.2072 0.805248 12.906C0.367761 9.79496 0.372695 6.63769 0.819901 3.52806C0.995736 2.31186 1.98921 1.39312 3.21127 1.26564C5.34724 1.04249 7.49341 0.930977 9.641 0.931551C11.8404 0.931551 13.9607 1.0561 16.0268 1.26857C16.6311 1.32576 17.1988 1.58367 17.6394 2.00117C18.08 2.41866 18.3681 2.97169 18.4577 3.57202C18.683 5.14012 18.7971 6.7222 18.7991 8.3064C18.7991 9.91237 18.6628 11.4729 18.4489 12.9895C18.3596 13.6014 18.0677 14.1657 17.6198 14.592C17.1719 15.0184 16.594 15.2822 15.9784 15.3413C13.821 15.5672 11.6534 15.6806 9.48422 15.6813C7.94712 17.4484 6.76902 18.3232 4.71027 19.2478V15.4087L3.71387 15.3179L3.39736 15.2886Z" stroke="#27ACFF" stroke-width="0.854758" stroke-linecap="round" stroke-linejoin="round"/>
<path d="M9.641 8.95854C9.641 8.4662 10.0425 8.16435 10.7488 7.69252C11.4052 7.25293 11.751 6.68586 11.5972 5.91218C11.5158 5.52747 11.3244 5.17467 11.0463 4.89661C10.7683 4.61855 10.4155 4.4272 10.0308 4.34578C9.74213 4.2919 9.44519 4.30182 9.16078 4.37482C8.87638 4.44783 8.61138 4.58216 8.38437 4.7684C8.15736 4.95464 7.97384 5.18829 7.84667 5.45295C7.7195 5.71761 7.65176 6.00688 7.64819 6.30049" stroke="#27ACFF" stroke-width="0.854758" stroke-linecap="round" stroke-linejoin="round"/>
<path d="M9.64099 12.3697V12.0034" stroke="#27ACFF" stroke-width="0.854758" stroke-linecap="round" stroke-linejoin="round"/>
</svg>
