<svg width="48" height="47" viewBox="0 0 48 47" fill="none" xmlns="http://www.w3.org/2000/svg">
<path d="M22.8473 12.3523C19.9016 12.3523 17.5132 14.7406 17.5132 17.6827V24.0258H28.1778V17.6827C28.1778 14.7406 25.793 12.3523 22.8473 12.3523Z" stroke="#27ACFF" stroke-width="1.08272" stroke-linecap="round" stroke-linejoin="round"/>
<path d="M15.0118 30.8418C15.0606 32.5281 16.4061 33.8889 18.0918 33.9568C20.9491 34.0698 24.7452 34.0698 27.6028 33.9568C29.2898 33.8906 30.6373 32.5294 30.6862 30.8418C30.7603 28.8554 30.7603 26.9153 30.6862 24.929C30.6373 23.2413 29.2898 21.8799 27.6028 21.814C24.4336 21.7033 21.261 21.7033 18.0918 21.814C16.4061 21.8819 15.0606 23.2427 15.0118 24.929C14.9363 26.899 14.9363 28.8714 15.0118 30.8418Z" fill="#0E0C38"/>
<path d="M15.0118 30.8418C15.0606 32.5281 16.4061 33.8889 18.0918 33.9568C20.9491 34.0698 24.7452 34.0698 27.6028 33.9568C29.2898 33.8906 30.6373 32.5294 30.6862 30.8418C30.7603 28.8554 30.7603 26.9153 30.6862 24.929C30.6373 23.2413 29.2898 21.8799 27.6028 21.814C24.4336 21.7033 21.261 21.7033 18.0918 21.814C16.4061 21.8819 15.0606 23.2427 15.0118 24.929C14.9363 26.899 14.9363 28.8714 15.0118 30.8418Z" stroke="#27ACFF" stroke-width="1.08272" stroke-linecap="round" stroke-linejoin="round"/>
<path d="M42.9174 26.6575C41.8412 37.6294 34.7679 43.7323 22.9391 43.7323C10.0624 43.7323 2.81949 36.4934 2.81949 23.6167C2.81949 10.74 10.0624 3.49377 22.9391 3.49377C33.2475 3.49377 39.9434 8.13617 42.208 16.5893L42.2789 16.8536" stroke="#27ACFF" stroke-width="1.08272" stroke-linecap="round" stroke-linejoin="round"/>
<path d="M44.78 10.2426C45.2386 12.8814 44.5505 15.1816 42.7125 17.1324C40.0704 17.5909 37.7738 16.8996 35.8227 15.0616" stroke="#27ACFF" stroke-width="1.08272" stroke-linecap="round" stroke-linejoin="round"/>
</svg>
