<svg width="23" height="23" viewBox="0 0 23 23" fill="none" xmlns="http://www.w3.org/2000/svg">
<path d="M13.8871 1.47576C12.3679 1.3683 10.8032 1.31219 9.20502 1.31219C7.60683 1.31219 6.04207 1.3683 4.52291 1.47576C2.85124 1.59401 1.57239 2.83277 1.49689 4.34112C1.38026 6.67071 1.31885 9.08902 1.31885 11.5693C1.31885 14.0495 1.38026 16.4679 1.49689 18.7975C1.57239 20.3057 2.85124 21.5446 4.52291 21.6628C6.04207 21.7703 7.60683 21.8264 9.20502 21.8264C10.8032 21.8264 12.3679 21.7703 13.8871 21.6628C15.5588 21.5446 16.8375 20.3059 16.9132 18.7975C17.0298 16.4679 17.0912 14.0495 17.0912 11.5693C17.0912 9.08904 17.0298 6.67071 16.9132 4.34114C16.8375 2.83277 15.5588 1.594 13.8871 1.47576Z" fill="#0E0C38"/>
<path d="M15.9526 2.34411C15.4188 1.8552 14.6993 1.53321 13.8871 1.47576C12.368 1.3683 10.8032 1.31219 9.20502 1.31219C7.60683 1.31219 6.04207 1.3683 4.52291 1.47576C2.85124 1.59401 1.57239 2.83277 1.49689 4.34112C1.38026 6.67071 1.31885 9.08902 1.31885 11.5693C1.31885 14.0495 1.38026 16.4679 1.49689 18.7975C1.57239 20.3057 2.85124 21.5446 4.52291 21.6628C6.04207 21.7703 7.60683 21.8264 9.20502 21.8264C10.8032 21.8264 12.368 21.7703 13.8871 21.6628C14.6993 21.6053 15.4188 21.2833 15.9526 20.7944" stroke="#3F3E50" stroke-width="0.854758" stroke-linecap="round" stroke-linejoin="round"/>
<path d="M7.19653 11.5685L21.833 11.5685" stroke="#3F3E50" stroke-width="0.854758" stroke-linecap="round" stroke-linejoin="round"/>
<path d="M17.1368 6.90149C19.0153 7.83488 20.8939 9.70167 21.833 11.5684C20.8939 13.4353 19.0153 15.302 17.1368 16.2354" stroke="#3F3E50" stroke-width="0.854758" stroke-linecap="round" stroke-linejoin="round"/>
</svg>
