<svg width="48" height="48" viewBox="0 0 48 48" fill="none" xmlns="http://www.w3.org/2000/svg">
<path d="M20.8571 3.17596C20.6645 3.06116 20.4444 3.00055 20.2202 3.00055C19.996 3.00055 19.776 3.06116 19.5834 3.17596C19.4251 3.3025 19.3185 3.48252 19.2836 3.68216C19.2486 3.8818 19.2879 4.08732 19.3938 4.26007C22.2371 9.18181 23.4509 15.3972 21.868 20.3887C20.8438 23.6145 16.6802 23.8007 14.9576 20.8842C14.6028 20.283 14.2841 19.6611 14.0032 19.022C12.0215 20.1224 10.3792 21.7448 9.25472 23.7129C8.13024 25.681 7.56655 27.9197 7.6249 30.1857C7.96078 38.4828 13.3015 44.5385 23.5707 44.5385C33.8398 44.5385 39.1673 38.1602 39.5164 30.1857C39.9288 20.6182 33.1381 8.85259 20.8571 3.17596Z" fill="#FA3BE7"/>
<path d="M20.8571 3.17596C20.6645 3.06116 20.4444 3.00055 20.2202 3.00055C19.996 3.00055 19.776 3.06116 19.5834 3.17596C19.4251 3.3025 19.3185 3.48252 19.2836 3.68216C19.2486 3.8818 19.2879 4.08732 19.3938 4.26007C22.2371 9.18181 23.4509 15.3972 21.868 20.3887C20.8438 23.6145 16.6802 23.8007 14.9576 20.8842C14.6028 20.283 14.2841 19.6611 14.0032 19.022C12.0215 20.1224 10.3792 21.7448 9.25472 23.7129C8.13024 25.681 7.56655 27.9197 7.6249 30.1857C7.96078 38.4828 13.3015 44.5385 23.5707 44.5385C33.8398 44.5385 39.1673 38.1602 39.5164 30.1857C39.9288 20.6182 33.1381 8.85259 20.8571 3.17596Z" fill="#FA3BE7" stroke="#27ACFF" stroke-width="1.08272" stroke-linecap="round" stroke-linejoin="round"/>
</svg>
