<svg width="20" height="20" viewBox="0 0 20 20" fill="none" xmlns="http://www.w3.org/2000/svg">
<path d="M1.66841 16.0235C1.34165 13.8622 1.0017 9.9235 1.98638 5.98331H18.8373C19.822 9.9235 19.4821 13.8637 19.1553 16.0221C19.0029 17.0199 18.1296 17.7072 17.1215 17.7072H3.70078C2.69266 17.7072 1.81934 17.0199 1.66695 16.0221L1.66841 16.0235Z" fill="#0E0C38"/>
<path d="M18.8373 5.98331C18.8373 5.98331 17.372 2.32007 14.4414 0.854767H6.38223C3.45163 2.32007 1.98633 5.98331 1.98633 5.98331H18.8373Z" fill="#0E0C38"/>
<path d="M4.18433 17.7057H3.70225C2.69412 17.7057 1.8208 17.0199 1.66841 16.0235C1.34165 13.8622 1.0017 9.9235 1.98638 5.98331H18.8373C19.822 9.9235 19.4821 13.8637 19.1553 16.0221C19.0029 17.0199 18.1296 17.7072 17.1215 17.7072H16.6394" stroke="#27ACFF" stroke-width="0.854758" stroke-linecap="round" stroke-linejoin="round"/>
<path d="M18.8373 5.98331C18.8373 5.98331 17.372 2.32007 14.4414 0.854767H6.38223C3.45163 2.32007 1.98633 5.98331 1.98633 5.98331H18.8373Z" fill="#0E0C38"/>
<path d="M18.8373 5.98331C18.8373 5.98331 17.372 2.32007 14.4414 0.854767H6.38223C3.45163 2.32007 1.98633 5.98331 1.98633 5.98331H18.8373Z" stroke="#27ACFF" stroke-width="0.854758" stroke-linecap="round" stroke-linejoin="round"/>
<path d="M1.98633 5.98331H18.8373" stroke="#27ACFF" stroke-width="0.854758" stroke-linecap="round" stroke-linejoin="round"/>
<path d="M10.4119 0.854767V5.98331" stroke="#27ACFF" stroke-width="0.854758" stroke-linecap="round" stroke-linejoin="round"/>
<path d="M13.4186 13.9736C12.8061 12.7486 11.5782 11.5207 10.3532 10.9067C9.12673 11.5207 7.90028 12.7472 7.28632 13.9736" stroke="#27ACFF" stroke-width="0.854758" stroke-linecap="round" stroke-linejoin="round"/>
<path d="M10.3503 18.7534V10.9404" stroke="#27ACFF" stroke-width="0.854758" stroke-linecap="round" stroke-linejoin="round"/>
</svg>
