<svg width="21" height="21" viewBox="0 0 21 21" fill="none" xmlns="http://www.w3.org/2000/svg">
<path d="M10.1505 20.002C16.2462 20.002 19.675 16.5732 19.675 10.4776C19.675 4.38191 16.2462 0.95311 10.1505 0.95311C4.0549 0.95311 0.626099 4.38191 0.626099 10.4776C0.626099 16.5732 4.0549 20.002 10.1505 20.002Z" fill="#0E0C38"/>
<path d="M15.5783 18.7522C14.1242 19.5742 12.3037 20.0021 10.1505 20.0021C7.9972 20.0021 6.17668 19.5742 4.72253 18.752V17.8547C5.02505 16.7154 5.67936 15.6973 6.59632 14.9478C7.59934 14.128 8.85497 13.6801 10.1504 13.6801C11.4459 13.6801 12.7015 14.128 13.7045 14.9478C14.6214 15.6973 15.2758 16.7154 15.5783 17.8547V18.7522Z" fill="#0E0C38"/>
<path d="M15.5783 17.8547C15.2758 16.7154 14.6214 15.6973 13.7045 14.9478C12.7015 14.128 11.4459 13.6801 10.1504 13.6801C8.85497 13.6801 7.59934 14.128 6.59632 14.9478C5.67936 15.6973 5.02505 16.7154 4.72253 17.8547" stroke="#27ACFF" stroke-width="0.854758" stroke-linecap="round" stroke-linejoin="round"/>
<path d="M10.1505 20.002C16.2462 20.002 19.675 16.5732 19.675 10.4776C19.675 4.38191 16.2462 0.95311 10.1505 0.95311C4.0549 0.95311 0.626099 4.38191 0.626099 10.4776C0.626099 16.5732 4.0549 20.002 10.1505 20.002Z" stroke="#27ACFF" stroke-width="0.854758" stroke-linecap="round" stroke-linejoin="round"/>
<path d="M10.1494 11.3274C12.2009 11.3274 13.3548 10.1735 13.3548 8.12207C13.3548 6.07066 12.2009 4.91673 10.1494 4.91673C8.09802 4.91673 6.94409 6.07066 6.94409 8.12207C6.94409 10.1735 8.09802 11.3274 10.1494 11.3274Z" fill="#0E0C38"/>
<path d="M10.1494 11.3274C12.2009 11.3274 13.3548 10.1735 13.3548 8.12207C13.3548 6.07066 12.2009 4.91673 10.1494 4.91673C8.09802 4.91673 6.94409 6.07066 6.94409 8.12207C6.94409 10.1735 8.09802 11.3274 10.1494 11.3274Z" stroke="#27ACFF" stroke-width="0.854758" stroke-linecap="round" stroke-linejoin="round"/>
</svg>
