<svg width="21" height="18" viewBox="0 0 21 18" fill="none" xmlns="http://www.w3.org/2000/svg">
<path d="M5.99067 17.373H15.2602C16.2419 17.373 17.0771 16.6579 17.2251 15.6879C17.4625 14.1479 17.5182 12.5859 17.3892 11.0341H19.1828C19.314 11.0341 19.4428 10.9988 19.5557 10.932C19.6686 10.8652 19.7615 10.7693 19.8247 10.6543C19.8879 10.5393 19.919 10.4094 19.9149 10.2783C19.9107 10.1472 19.8714 10.0195 19.8011 9.90876L19.4905 9.42082C17.6248 6.48232 15.2506 3.89967 12.479 1.79394L11.5119 1.05982C11.257 0.866107 10.9456 0.76123 10.6254 0.76123C10.3052 0.76123 9.99385 0.866107 9.7389 1.05982L8.77181 1.79394C5.99961 3.89998 3.62486 6.48313 1.75888 9.42228L1.44971 9.91023C1.37938 10.021 1.34009 10.1486 1.33594 10.2798C1.33179 10.4109 1.36293 10.5408 1.42612 10.6558C1.48931 10.7707 1.58221 10.8667 1.69514 10.9335C1.80806 11.0003 1.93685 11.0355 2.06806 11.0356H3.86159C3.73376 12.5879 3.78885 14.1499 4.0257 15.6894C4.17516 16.6594 5.00892 17.3745 5.9892 17.3745L5.99067 17.373Z" fill="#0E0C38"/>
<path d="M5.99067 17.3732H15.2602C16.2419 17.3732 17.0771 16.6582 17.2251 15.6881C17.4625 14.1481 17.5182 12.5861 17.3907 11.0344H19.1828C19.314 11.0343 19.4428 10.9991 19.5557 10.9322C19.6686 10.8654 19.7615 10.7695 19.8247 10.6545C19.8879 10.5395 19.919 10.4097 19.9149 10.2785C19.9107 10.1474 19.8714 10.0198 19.8011 9.90901L19.4905 9.42106C17.6248 6.48256 15.2506 3.89992 12.479 1.79418L11.5119 1.06153C11.257 0.867816 10.9456 0.762939 10.6254 0.762939C10.3052 0.762939 9.99385 0.867816 9.7389 1.06153L8.77181 1.79418C6.00014 3.90035 3.62589 6.4835 1.76035 9.42253L1.44971 9.91047C1.37938 10.0212 1.34009 10.1489 1.33594 10.28C1.33179 10.4112 1.36293 10.541 1.42612 10.656C1.48931 10.771 1.58221 10.8669 1.69514 10.9337C1.80806 11.0005 1.93685 11.0358 2.06806 11.0358H3.86159C3.73378 12.5882 3.78886 14.1501 4.0257 15.6896C4.17516 16.6596 5.00892 17.3747 5.9892 17.3747L5.99067 17.3732Z" stroke="#27ACFF" stroke-width="0.854758" stroke-linecap="round" stroke-linejoin="round"/>
<path d="M10.6254 10.4759C11.9749 10.4759 13.0695 11.569 13.0695 12.9186V17.3731H8.18127V12.9186C8.18127 11.5705 9.27585 10.4759 10.6254 10.4759Z" fill="#0E0C38"/>
<path d="M10.6254 10.4759C11.9735 10.4759 13.068 11.569 13.068 12.9186V17.3731H8.18127V12.9186C8.18127 11.5705 9.27585 10.4759 10.6254 10.4759Z" stroke="#27ACFF" stroke-width="0.854758" stroke-linecap="round" stroke-linejoin="round"/>
</svg>
