<svg width="20" height="20" viewBox="0 0 20 20" fill="none" xmlns="http://www.w3.org/2000/svg">
<path d="M9.3056 5.2639C8.00764 5.2639 6.95526 6.31628 6.95526 7.61263V10.4075H11.6543V7.61263C11.6543 6.31628 10.6036 5.2639 9.3056 5.2639Z" stroke="#27ACFF" stroke-width="0.854758" stroke-linecap="round" stroke-linejoin="round"/>
<path d="M5.85301 13.4109C5.87455 14.1539 6.46741 14.7535 7.21017 14.7834C8.46916 14.8332 10.1418 14.8332 11.4009 14.7834C12.1443 14.7543 12.738 14.1545 12.7596 13.4109C12.7922 12.5356 12.7922 11.6808 12.7596 10.8056C12.738 10.0619 12.1443 9.46203 11.4009 9.43302C10.0045 9.38422 8.6066 9.38422 7.21017 9.43302C6.46741 9.46291 5.87455 10.0625 5.85301 10.8056C5.81975 11.6736 5.81975 12.5427 5.85301 13.4109Z" fill="#0E0C38"/>
<path d="M5.85301 13.4109C5.87455 14.1539 6.46741 14.7535 7.21017 14.7834C8.46916 14.8332 10.1418 14.8332 11.4009 14.7834C12.1443 14.7543 12.738 14.1545 12.7596 13.4109C12.7922 12.5356 12.7922 11.6808 12.7596 10.8056C12.738 10.0619 12.1443 9.46203 11.4009 9.43302C10.0045 9.38422 8.6066 9.38422 7.21017 9.43302C6.46741 9.46291 5.87455 10.0625 5.85301 10.8056C5.81975 11.6736 5.81975 12.5427 5.85301 13.4109Z" stroke="#27ACFF" stroke-width="0.854758" stroke-linecap="round" stroke-linejoin="round"/>
<path d="M18.149 11.5672C17.6748 16.4016 14.5581 19.0907 9.34604 19.0907C3.67226 19.0907 0.480835 15.9011 0.480835 10.2273C0.480835 4.55351 3.67226 1.36063 9.34604 1.36063C13.8882 1.36063 16.8386 3.40618 17.8364 7.13083L17.8676 7.24732" stroke="#27ACFF" stroke-width="0.854758" stroke-linecap="round" stroke-linejoin="round"/>
<path d="M18.9696 4.33434C19.1717 5.49705 18.8685 6.5106 18.0586 7.37014C16.8945 7.57221 15.8825 7.26757 15.0228 6.4577" stroke="#27ACFF" stroke-width="0.854758" stroke-linecap="round" stroke-linejoin="round"/>
</svg>
