<svg width="48" height="48" viewBox="0 0 48 48" fill="none" xmlns="http://www.w3.org/2000/svg">
<path d="M20.8571 3.58393C20.6645 3.46913 20.4444 3.40852 20.2202 3.40852C19.996 3.40852 19.776 3.46913 19.5834 3.58393C19.4251 3.71048 19.3185 3.89049 19.2836 4.09013C19.2486 4.28977 19.2879 4.49529 19.3938 4.66805C22.2371 9.58978 23.4509 15.8051 21.868 20.7967C20.8438 24.0225 16.6802 24.2087 14.9576 21.2922C14.6028 20.6909 14.2841 20.0691 14.0032 19.4299C12.0215 20.5303 10.3792 22.1527 9.25472 24.1209C8.13024 26.089 7.56655 28.3277 7.6249 30.5936C7.96078 38.8908 13.3015 44.9465 23.5707 44.9465C33.8398 44.9465 39.1673 38.5682 39.5164 30.5936C39.9288 21.0262 33.1381 9.26056 20.8571 3.58393Z" fill="#FA3BE7"/>
<path d="M20.8571 3.58393C20.6645 3.46913 20.4444 3.40852 20.2202 3.40852C19.996 3.40852 19.776 3.46913 19.5834 3.58393C19.4251 3.71048 19.3185 3.89049 19.2836 4.09013C19.2486 4.28977 19.2879 4.49529 19.3938 4.66805C22.2371 9.58978 23.4509 15.8051 21.868 20.7967C20.8438 24.0225 16.6802 24.2087 14.9576 21.2922C14.6028 20.6909 14.2841 20.0691 14.0032 19.4299C12.0215 20.5303 10.3792 22.1527 9.25472 24.1209C8.13024 26.089 7.56655 28.3277 7.6249 30.5936C7.96078 38.8908 13.3015 44.9465 23.5707 44.9465C33.8398 44.9465 39.1673 38.5682 39.5164 30.5936C39.9288 21.0262 33.1381 9.26056 20.8571 3.58393Z" fill="#FA3BE7" stroke="#27ACFF" stroke-width="1.08272" stroke-linecap="round" stroke-linejoin="round"/>
</svg>
