<svg width="48" height="47" viewBox="0 0 48 47" fill="none" xmlns="http://www.w3.org/2000/svg">
<path d="M23.9513 45.2343C37.7854 45.2343 45.567 37.4527 45.567 23.6186C45.567 9.78451 37.7854 2.00284 23.9513 2.00284C10.1172 2.00284 2.33554 9.78451 2.33554 23.6186C2.33554 37.4527 10.1172 45.2343 23.9513 45.2343Z" fill="#0E0C38"/>
<path d="M36.2696 42.3977C32.9696 44.2633 28.838 45.2343 23.9513 45.2343C19.0643 45.2343 14.9327 44.2633 11.6325 42.3973V40.3608C12.319 37.7752 13.804 35.4647 15.885 33.7637C18.1614 31.903 21.011 30.8866 23.9511 30.8866C26.8911 30.8866 29.7408 31.903 32.0172 33.7637C34.0981 35.4647 35.5832 37.7752 36.2696 40.3608V42.3977Z" fill="#0E0C38"/>
<path d="M36.2696 40.3608C35.5832 37.7752 34.0981 35.4647 32.0172 33.7637C29.7408 31.903 26.8911 30.8866 23.9511 30.8866C21.011 30.8866 18.1614 31.903 15.885 33.7637C13.804 35.4647 12.319 37.7752 11.6325 40.3608" stroke="#27ACFF" stroke-width="1.08272" stroke-linecap="round" stroke-linejoin="round"/>
<path d="M23.9513 45.2343C37.7854 45.2343 45.567 37.4527 45.567 23.6186C45.567 9.78451 37.7854 2.00284 23.9513 2.00284C10.1172 2.00284 2.33554 9.78451 2.33554 23.6186C2.33554 37.4527 10.1172 45.2343 23.9513 45.2343Z" stroke="#27ACFF" stroke-width="1.08272" stroke-linecap="round" stroke-linejoin="round"/>
<path d="M23.9488 25.5473C28.6045 25.5473 31.2234 22.9284 31.2234 18.2727C31.2234 13.617 28.6045 10.9982 23.9488 10.9982C19.2931 10.9982 16.6743 13.617 16.6743 18.2727C16.6743 22.9284 19.2931 25.5473 23.9488 25.5473Z" fill="#0E0C38"/>
<path d="M23.9488 25.5473C28.6045 25.5473 31.2234 22.9284 31.2234 18.2727C31.2234 13.617 28.6045 10.9982 23.9488 10.9982C19.2931 10.9982 16.6743 13.617 16.6743 18.2727C16.6743 22.9284 19.2931 25.5473 23.9488 25.5473Z" stroke="#27ACFF" stroke-width="1.08272" stroke-linecap="round" stroke-linejoin="round"/>
</svg>
